<svg width="44" height="44" viewBox="0 0 44 44" fill="none" xmlns="http://www.w3.org/2000/svg">
    <g clip-path="url(#clip0)">
        <path d="M11 32.9999H17.5448L11 26.4551V32.9999Z" fill="#007AFF"/>
        <path d="M11.0933 24.7254L19.2744 32.9065C19.9614 32.8308 20.6348 32.71 21.2918 32.5467L11.4531 22.708C11.2898 23.365 11.169 24.0384 11.0933 24.7254Z" fill="#007AFF"/>
        <path d="M22.7056 11.4539L32.5464 21.2948C32.7097 20.638 32.8307 19.9646 32.9064 19.2778L24.7226 11.0938C24.0358 11.1696 23.3624 11.2906 22.7056 11.4539Z" fill="#007AFF"/>
        <path d="M26.4512 11L32.9997 17.5485V11H26.4512Z" fill="#007AFF"/>
        <path fill-rule="evenodd" clip-rule="evenodd" d="M22.6946 32.1262L11.8735 21.3052C13.4238 16.9123 16.9103 13.4251 21.303 11.874L32.1256 22.6969C30.5747 27.0895 27.0875 30.576 22.6946 32.1262ZM24.8656 21.5905C24.3764 22.0797 23.668 22.2161 23.0566 21.9996L21.2214 24.906L19.0942 22.7788L22.0004 20.9438C21.7837 20.3322 21.92 19.6236 22.4094 19.1342C23.0877 18.456 24.1874 18.456 24.8656 19.1342C25.5439 19.8125 25.5439 20.9122 24.8656 21.5905Z" fill="#007AFF"/>
    </g>
    <rect x="13.1631" y="4.21289" width="8.26982" height="1.40426" transform="rotate(45 13.1631 4.21289)" fill="#007AFF"/>
    <rect x="10.3545" y="8.89355" width="4.98921" height="1.40426" transform="rotate(45 10.3545 8.89355)" fill="#007AFF"/>
    <rect x="3.80127" y="10.2979" width="10.5874" height="1.40426" transform="rotate(45 3.80127 10.2979)" fill="#007AFF"/>
    <defs>
        <clipPath id="clip0">
            <rect width="22" height="22" fill="white" transform="translate(11 11)"/>
        </clipPath>
    </defs>
</svg>
